<svg xmlns="http://www.w3.org/2000/svg" width="42" height="42" viewBox="0 0 42 42">
  <g fill="none" fill-rule="evenodd" stroke="#FFF" stroke-linecap="round" stroke-linejoin="round" transform="translate(1 1)">
    <path d="M35.2120265 23.2637242C37.2978109 22.1989326 39.7262774 20.031615 39.7262774 15.7116788 39.7262774 10.9139051 35.7638686 6.96693431 30.8408759 7.14875912 28.8606835 2.95359589 24.6390247.276316073 20 .273722628 13.6511873.274495349 8.4028231 5.2228026 8.02872263 11.5605839 6.13205941 11.1621172 4.15683436 11.6400463 2.65213332 12.8615134 1.14743228 14.0829805.273722628 15.9177715.273722628 17.8558394.273722628 21.5565276 2.38410487 23.1253721 4.21422292 23.7901116M36.2956204 35.4379562C36.2956204 37.8063306 34.3756737 39.7262774 32.0072993 39.7262774L7.99270073 39.7262774C5.62432635 39.7262774 3.70437956 37.8063306 3.70437956 35.4379562L3.70437956 31.149635 36.2956204 31.149635 36.2956204 35.4379562z"/>
    <path d="M3.70437956 31.149635L7.70624088 22.4151825C8.09905109 21.5575182 9.19343066 20.8576642 10.1368613 20.8576642L28.5766423 20.8576642C29.520073 20.8576642 30.6813504 21.524927 31.1564964 22.3379927L36.2956204 31.149635 3.70437956 31.149635zM25.1459854 35.3949112L30.2919708 35.3949112"/>
  </g>
</svg>
