<svg xmlns="http://www.w3.org/2000/svg" width="42" height="42" viewBox="0 0 42 42">
  <g fill="none" fill-rule="evenodd" stroke="#FFF" stroke-linecap="round" stroke-linejoin="round" transform="translate(1 1)">
    <circle cx="19.992" cy="19.998" r="12.343"/>
    <path d="M29.1170505,11.6843232 C29.1170505,11.6843232 28.5815354,14.6315556 26.4337778,15.7044848 C21.4565253,14.4606465 23.3384242,17.2768485 23.7505051,18.9232727 C24.2879192,19.4606869 25.3608485,18.9232727 25.3608485,18.9232727 C27.7611717,23.6479596 23.7505051,24.8272323 23.7505051,24.8272323 C20.8298586,27.7478788 21.7812525,28.5834343 18.9213737,28.5834343 C18.3839596,28.5834343 17.3091313,26.4375758 17.3091313,25.9001616 C17.3091313,21.8116364 15.2601212,21.0710303 13.5529293,21.0710303 C11.9425859,21.0710303 11.9425859,18.9232727 11.9425859,18.9232727 C11.9425859,18.9232727 11.9425859,15.1651717 14.6239596,14.6296566 C17.3072323,14.0941414 17.3072323,15.1651717 17.3072323,15.1651717 C18.4162424,16.2741818 22.3490505,14.0998384 18.7561616,11.3045253 C17.4287677,10.2695758 23.6023838,8.18828283 23.6023838,8.18828283 C24.9588125,8.70413147 25.9371401,9.15231353 26.5373666,9.53282901 C27.1626216,9.92921139 28.0225162,10.6463761 29.1170505,11.6843232 Z"/>
    <polyline points="37.963 4.508 30.52 3.044 31.098 9.455"/>
    <polyline points="1.025 35.181 9.504 36.952 8.823 30.562"/>
    <path d="M30.4995152 3.04391919C36.3712762 6.67787184 39.9430291 13.0928004 39.9393967 19.998101 39.9393967 31.0103434 31.0141414 39.935596 20.001899 39.935596 18.5415758 39.935596 17.1173333 39.7798788 15.7500606 39.4817374M9.50428283 36.9522828C3.63252179 33.3183302.0607688845 26.9034016.0644012683 19.998101.0644012683 8.98585859 8.98965657.0606060606 20.001899.0606060606 21.4470303.0606060606 22.8560808.214424242 24.2138586.504969697"/>
  </g>
</svg>
