<svg xmlns="http://www.w3.org/2000/svg" width="41" height="42" viewBox="0 0 41 42">
  <g fill="none" fill-rule="evenodd" stroke="#FFF" stroke-linecap="round" stroke-linejoin="round" transform="translate(1 .96)">
    <path d="M10.4097063,10.1283629 L10.4097063,23.8472037 C10.4097063,26.2171335 14.6303947,28.1343415 19.8347107,28.1343415 C25.0390268,28.1343415 29.2597151,26.2171335 29.2597151,23.8472037 L29.2597151,10.1283629"/>
    <ellipse cx="19.835" cy="10.269" rx="9.425" ry="4.361"/>
    <path d="M29.2597151 17.1619483C29.2597151 19.4948479 25.0390268 21.3820995 19.8347107 21.3820995 14.6303947 21.3820995 10.4097063 19.4948479 10.4097063 17.1619483M39.3880781 29.5410586L39.3880781 36.2933005C39.3880781 38.1569193 36.8694918 39.6694215 33.7612098 39.6694215 30.6529277 39.6694215 28.1343415 38.1569193 28.1343415 36.2933005L28.1343415 29.5410586"/>
    <ellipse cx="33.761" cy="29.541" rx="5.627" ry="3.376"/>
    <path d="M34.3238966,1.88377765 L34.3238966,5.65133294 C34.3238966,6.6911782 32.9386742,7.53511059 31.229119,7.53511059 C29.5195639,7.53511059 28.1343415,6.6911782 28.1343415,5.65133294 L28.1343415,1.88377765"/>
    <ellipse cx="31.229" cy="1.884" rx="3.095" ry="1.884"/>
    <path d="M11.2537366,29.5410586 L11.2537366,36.2933005 C11.2537366,38.1569193 8.73515034,39.6694215 5.6268683,39.6694215 C2.51858625,39.6694215 0,38.1569193 0,36.2933005 L0,29.5410586"/>
    <ellipse cx="5.627" cy="29.541" rx="5.627" ry="3.376"/>
    <path d="M11.2537366,1.88377765 L11.2537366,5.65133294 C11.2537366,6.6911782 9.86851416,7.53511059 8.15895903,7.53511059 C6.4494039,7.53511059 5.06418147,6.6911782 5.06418147,5.65133294 L5.06418147,1.88377765"/>
    <ellipse cx="8.159" cy="1.884" rx="3.095" ry="1.884"/>
  </g>
</svg>
