<svg xmlns="http://www.w3.org/2000/svg" width="20" height="20" viewBox="0 0 20 20">
  <path fill="#221E1B" fill-rule="evenodd" d="M9.99898613,0 C4.47719362,0 -0.0004,4.5904205 -0.0004,10.2540162 C-0.0004,14.7833822 2.86454782,18.6260419 6.83876513,19.9824598 C7.33907207,20.0762447 7.52139251,19.7596422 7.52139251,19.4877292 C7.52139251,19.2447699 7.51279828,18.5996059 7.50788729,17.7442129 C4.72642627,18.3635703 4.13956317,16.3695415 4.13956317,16.3695415 C3.68468287,15.1849574 3.02906593,14.8702433 3.02906593,14.8702433 C2.12114696,14.2338913 3.09781977,14.2464799 3.09781977,14.2464799 C4.10150301,14.3194935 4.62943425,15.30329 4.62943425,15.30329 C5.52139251,16.869937 6.9695202,16.417378 7.53980872,16.1555359 C7.630662,15.4927479 7.88848889,15.0408184 8.17455396,14.784641 C5.95417336,14.525946 3.61961228,13.6460053 3.61961228,9.7171139 C3.61961228,8.59799041 4.00942198,7.68280168 4.64907821,6.96588286 C4.54594745,6.7065584 4.20279214,5.66422516 4.7466841,4.25241751 C4.7466841,4.25241751 5.58646311,3.97672792 7.49683757,5.30356275 C8.2942593,5.07570971 9.14999902,4.96241262 10.0002139,4.95800662 C10.849201,4.96241262 11.7049407,5.07570971 12.5035902,5.30356275 C14.4127369,3.97672792 15.2506743,4.25241751 15.2506743,4.25241751 C15.7964079,5.66422516 15.4532525,6.7065584 15.3501218,6.96588286 C15.9910058,7.68280168 16.37836,8.59799041 16.37836,9.7171139 C16.37836,13.6560761 14.0401157,14.5227989 11.8123686,14.7764585 C12.1714846,15.0930609 12.4913127,15.7187126 12.4913127,16.6754436 C12.4913127,18.045709 12.4790352,19.1516145 12.4790352,19.4877292 C12.4790352,19.7621599 12.6589002,20.0812801 13.1665736,19.981201 C17.1364938,18.6222653 19.9996,14.7821233 19.9996,10.2540162 C19.9996,4.5904205 15.5220064,0 9.99898613,0"/>
</svg>
