<svg xmlns="http://www.w3.org/2000/svg" width="204" height="53" viewBox="0 0 204 53">
  <path fill="#FFF" d="M197.788434,45.7901632 C197.547753,46.196805 197.109839,46.4718321 196.606041,46.4798236 C195.832184,46.4921242 195.194775,45.8700654 195.182567,45.0902695 C195.170358,44.3104737 195.787864,43.6683618 196.561721,43.6560612 C196.561823,43.6560612 196.561926,43.6560612 196.561926,43.6560612 C197.168043,43.6492919 197.688979,44.029414 197.893279,44.5684663 C197.944555,44.6287699 197.969691,44.6967338 197.964059,44.7660092 C197.96255,44.7752091 197.960463,44.7843113 197.957819,44.7933021 C197.974943,44.8791282 197.98439,44.9677889 197.9854,45.0585361 C197.986432,45.2176117 197.961311,45.3707621 197.914079,45.5138208 C197.94495,45.609643 197.997556,45.7026306 198.070757,45.7901632 L197.788434,45.7901632 Z M197.38571,44.3689571 C197.171598,44.0942834 196.833458,43.9243214 196.460769,43.9413524 C195.847778,43.969468 195.373492,44.4929153 195.401294,45.1106327 C195.4292,45.7281434 195.948729,46.2061095 196.561721,46.1779938 C196.573621,46.1779938 196.58542,46.1777871 196.597218,46.1772702 C196.94259,46.1648642 197.243644,45.9878764 197.42872,45.7237908 C197.367159,45.6359394 197.323287,45.544026 197.297891,45.4498811 C197.250085,45.2940046 197.111516,45.22723 196.807704,45.22723 L196.551872,45.22723 L196.551872,45.7901632 L196.018903,45.7901632 L196.018903,44.3907893 C196.316132,44.3586424 196.617692,44.3437576 196.919598,44.3462384 C197.07682,44.3392203 197.234041,44.3470248 197.38571,44.3689571 Z M197.622374,45.0559975 C197.577513,45.0686636 197.529492,45.0781531 197.479069,45.0839642 L197.479069,45.103087 L197.46833,45.099986 C197.523878,45.1132069 197.575424,45.130499 197.622116,45.1511776 C197.623231,45.1237056 197.623313,45.0959816 197.622324,45.0680458 C197.622366,45.0640331 197.622382,45.0600162 197.622374,45.0559975 Z M95.9197921,15.4244325 L95.9197921,15.4340456 C96.4564547,15.4219517 96.9753687,15.6283744 97.3591681,16.0064885 C97.7510723,16.3850162 97.9654911,16.9131149 97.9493841,17.459923 L97.9493841,35.705327 C97.9515385,35.8295734 97.9515385,35.9538198 97.9493841,36.0781695 C97.8470991,42.1036017 92.9162874,46.9046594 86.935952,46.8017065 C80.955514,46.6986502 76.1903895,41.7306559 76.2925719,35.7052237 C76.2918537,33.218539 77.1338323,30.8061748 78.6792892,28.8672285 C82.4255653,24.1672631 89.2441858,23.4169267 93.9090772,27.1915563 L93.9090772,17.4503099 C93.9076409,17.4072062 93.9076409,17.3641024 93.9090772,17.3209986 C93.9445743,16.2378225 94.8447229,15.3887711 95.9197921,15.4244325 Z M93.375595,38.3322799 L93.375595,38.3514027 C94.0868704,36.6645669 94.0868704,34.7589046 93.375595,33.0720689 C92.6840174,31.4329884 91.3932983,30.1247837 89.7708969,29.4178611 C88.0709354,28.692746 86.1519384,28.692746 84.4520794,29.4178611 C82.8348077,30.1111393 81.5487052,31.4113848 80.866361,33.0434364 C80.1548804,34.7367842 80.1548804,36.6483384 80.866361,38.3417896 C81.5472689,39.9793196 82.832961,41.2861805 84.4520794,41.9864877 C86.152041,42.7116027 88.071038,42.7116027 89.7708969,41.9864877 C91.3934009,41.2795651 92.6840174,39.9711536 93.375595,38.3322799 Z M118.529896,27.9802417 C119.547718,28.9832055 120.353995,30.1827722 120.900404,31.5072054 C121.430808,32.8389777 121.703089,34.2607821 121.702166,35.695714 C121.70432,35.8200637 121.70432,35.9443101 121.702166,36.0685565 C121.599881,42.0939887 116.669069,46.8951496 110.688734,46.7921967 C104.708296,46.6891405 99.9431712,41.7211462 100.045354,35.6956106 C100.046379,32.8046601 101.185877,30.0322708 103.214033,27.9871672 C107.441469,23.7240282 114.298664,23.7209272 118.529896,27.9802417 Z M117.131557,38.3226668 L117.131557,38.3514027 C117.838729,36.66374 117.838729,34.7597315 117.131557,33.0720689 C116.785717,32.2633304 116.293374,31.5266383 115.679562,30.899928 C115.060312,30.273011 114.328826,29.7701337 113.523576,29.4178611 C111.824846,28.6925393 109.906772,28.6925393 108.208041,29.4178611 C106.59077,30.1073147 105.303436,31.4042525 104.619143,33.0338233 C103.907662,34.7272745 103.907662,36.6388287 104.619143,38.3322799 C105.299845,39.9709469 106.587076,41.2781179 108.208041,41.9768746 C109.906772,42.7021964 111.824846,42.7021964 113.523576,41.9768746 C114.328826,41.624602 115.060312,41.1216213 115.679562,40.494911 C116.293374,39.867994 116.785717,39.1313019 117.131557,38.3226668 Z M163.301671,26.8099277 C163.345478,27.4492486 163.051652,28.0644853 162.528532,28.428645 L154.428939,33.7269982 L162.736795,43.1566983 C163.096691,43.5410144 163.296746,44.0498871 163.295515,44.5782959 C163.296746,44.8465316 163.241962,45.1119765 163.134445,45.3574716 C163.028261,45.6004859 162.879604,45.8223101 162.695758,46.0126076 C162.51776,46.2005277 162.302725,46.3488584 162.064505,46.4482968 C161.813666,46.5542474 161.544052,46.6072743 161.272181,46.6041733 C160.770195,46.6193682 160.283188,46.4302077 159.92124,46.0794857 L150.985106,35.9692214 L148.627217,37.5275727 L148.627217,44.5496634 C148.633681,45.0908897 148.42039,45.6113394 148.036899,45.9903838 C147.667565,46.3841063 147.15101,46.6034498 146.613322,46.5946636 C146.070812,46.6046902 145.54882,46.3855535 145.174048,45.9903838 C144.790557,45.6113394 144.577267,45.0908897 144.583587,44.5496634 L144.583587,17.4694327 C144.583587,17.4609567 144.583587,17.4524806 144.583587,17.4439012 C144.590706,16.3215492 145.499473,15.4174036 146.613322,15.4241896 C147.152754,15.4158531 147.671258,15.6348865 148.043259,16.0287123 C148.430137,16.4094106 148.643735,16.9342017 148.633475,17.4789424 L148.633475,32.6966422 L160.195676,25.1179236 C160.518125,24.9077798 160.894538,24.7972812 161.27844,24.7998653 C161.55031,24.7984182 161.819616,24.8513418 162.070763,24.9557418 C162.308471,25.0575577 162.5233,25.2069221 162.702016,25.3946354 C162.88299,25.5800746 163.031442,25.7951801 163.140805,26.030752 C163.24822,26.2762471 163.303005,26.5416919 163.301671,26.8099277 Z M129.754361,30.8553771 L129.7638,30.8648868 C129.754259,30.8744999 129.744615,30.884113 129.734971,30.8938294 C127.09762,33.5670904 127.110547,37.8884247 129.7638,40.5457672 C130.388795,41.1664823 131.12459,41.6627442 131.932302,42.0086081 C132.769459,42.3674961 133.670839,42.5493175 134.580528,42.5429088 C135.385471,42.550868 136.184874,42.4085325 136.938417,42.1230346 C137.689191,41.8286472 138.382512,41.4032946 138.986989,40.8669265 C139.357554,40.591972 139.805268,40.4428143 140.265397,40.440747 C140.308178,40.4392999 140.351062,40.4392999 140.393843,40.440747 C141.468912,40.4765118 142.311609,41.3834483 142.276112,42.4666244 C142.280113,43.0322452 142.051639,43.5745051 141.644859,43.9645064 C139.672821,45.6827655 137.151092,46.6253634 134.544005,46.6188849 C128.571467,46.6036565 123.741914,41.7132903 123.756858,35.695714 C123.756858,29.6694548 128.605528,24.7841536 134.586787,24.7841536 C137.186692,24.7400162 139.707292,25.6861285 141.644756,27.4333302 C142.093291,27.8161992 142.349055,28.3804762 142.342387,28.9726621 C142.356647,29.5181265 142.150436,30.0461219 141.77115,30.4356063 C141.385812,30.8234369 140.856946,31.0311 140.312795,31.0080493 C139.835328,31.0159051 139.37007,30.8562041 138.99653,30.5564416 C138.382102,30.0198668 137.683446,29.5899661 136.929081,29.2843117 C136.176358,28.995196 135.376648,28.8506898 134.571193,28.8581322 C133.6614,28.8518269 132.760123,29.0335449 131.922966,29.392433 C131.114536,29.7371598 130.378638,30.2335251 129.754361,30.8553771 Z M203.468263,26.1484863 L203.455849,26.1644047 C203.820977,26.5209153 204.018263,27.0169705 203.998668,27.5288407 C204,27.8035885 203.944088,28.0755455 203.834519,28.3271392 C203.726592,28.5627111 203.579269,28.7778165 203.398911,28.9631524 C203.220399,29.1512792 203.00557,29.3006436 202.767657,29.4019427 C202.516613,29.507273 202.247102,29.5602999 201.975334,29.5578191 C201.679764,29.5465522 201.389632,29.473989 201.122993,29.3446777 C200.279066,29.0143188 199.380148,28.8491393 198.474767,28.8581322 C197.563949,28.8518269 196.661646,29.0335449 195.823258,29.392433 C195.019342,29.7384002 194.287753,30.2348688 193.667375,30.8553771 C193.050792,31.4779528 192.55886,32.2143348 192.218457,33.0243136 C191.862563,33.8689202 191.682205,34.7781307 191.688258,35.695714 L191.688258,44.5783993 C191.646503,45.6411089 190.801036,46.4929511 189.746383,46.5349179 C188.629866,46.579262 187.688886,45.7034388 187.644771,44.5783993 L187.644771,26.810031 C187.686424,25.7474248 188.531993,24.8955826 189.586544,24.8536158 C190.70306,24.8091683 191.644041,25.6850949 191.688258,26.810031 L191.688258,27.2170878 C192.635907,26.4490757 193.702256,25.843142 194.844831,25.4233712 C196.010593,24.9986388 197.241295,24.7834301 198.481025,24.7872045 C199.091965,24.788495 199.702289,24.8267406 200.308612,24.9017845 C200.921501,24.9707299 201.524234,25.1116183 202.104601,25.3215554 C202.612127,25.4968647 203.077077,25.7786414 203.468263,26.1484863 Z M184.677584,31.5232272 L184.674506,31.5297393 C185.209938,32.8629587 185.479141,34.2895179 185.46683,35.7276542 C185.485297,36.2739454 185.270365,36.8019408 184.876511,37.1778843 C184.493841,37.5580658 183.974516,37.7658322 183.437238,37.7535316 L168.124965,37.7535316 C168.337845,38.4555959 168.664295,39.1174508 169.090876,39.712531 C169.508428,40.2954139 170.014416,40.8084212 170.590166,41.2327401 C171.167968,41.655922 171.806608,41.9873146 172.484028,42.2154442 C173.179812,42.4508094 173.909349,42.5689571 174.643194,42.5653393 C175.439417,42.5753658 176.231125,42.4439872 176.982103,42.177302 C177.692045,41.9137177 178.35028,41.5261972 178.926543,41.0324161 L178.954962,41.006988 C178.986458,40.9815598 179.175844,40.8034596 179.242119,40.7429903 C179.923334,40.0969505 180.954597,40.003714 181.739021,40.5171348 C182.674769,41.1724775 182.906628,42.4679682 182.256601,43.4111863 C182.129488,43.6005535 181.975292,43.7697642 181.798935,43.9136502 C181.792574,43.9231599 181.748356,43.9614054 181.719938,43.9899346 C179.752723,45.6987873 177.241458,46.6385943 174.644118,46.6380777 C168.661218,46.6370438 163.811967,41.7492618 163.813095,35.7211421 C163.813095,35.7202118 163.813095,35.7190748 163.813095,35.7180411 C163.81484,29.6934358 168.663577,24.8110289 174.642989,24.8127856 C179.015799,24.836457 182.957617,27.4725061 184.677584,31.5232272 Z M168.121682,33.7016734 L181.154858,33.7016734 C180.940131,32.9980585 180.609372,32.3356869 180.176328,31.742674 C179.328297,30.5718432 178.138836,29.6968469 176.773635,29.2397608 C176.085853,29.0072899 175.365139,28.8890388 174.639809,28.8898614 C173.910375,28.8893489 173.185557,29.0074966 172.493364,29.2397608 C171.809275,29.4684072 171.163352,29.7996964 170.577342,30.2224649 C169.997898,30.6457502 169.488628,31.1588608 169.068511,31.742674 C168.64429,32.3364104 168.323995,32.9989888 168.121682,33.7016734 Z M196.823466,44.9981701 L196.834379,45.0140885 C197.122082,45.0140885 197.367175,44.9345998 197.367175,44.8073558 C197.367175,44.6801118 197.207302,44.5942143 196.866076,44.5942143 C196.765268,44.5870821 196.663247,44.5870821 196.562265,44.5942143 L196.562265,44.9981701 L196.823466,44.9981701 Z M72.5837421,20.0072837 L73.3067131,20.582931 L73.0068346,21.4670236 C72.5286498,22.68654 71.7917263,23.786048 70.8477706,24.6886431 C69.4273742,26.103832 66.8515786,27.7926317 62.6629226,27.7926317 C62.4420405,27.7926317 62.214695,27.7926317 61.9874521,27.7926317 C60.2925176,32.1113819 58.0134201,36.9709448 54.1877373,41.3343492 C51.8994064,43.9435231 49.2079888,46.1632124 46.2175133,47.9080367 C42.5881929,49.9788785 38.6407325,51.4235268 34.5384596,52.1824426 C31.5873797,52.7355561 28.5913643,53.0092702 25.5897062,53 C18.9452881,53 13.0836525,51.7276306 9.47577397,49.5014292 C6.25610635,47.5201027 3.78136454,44.2825647 2.11792602,39.8873235 C0.663468899,35.8845643 -0.0532439079,31.6477837 0.00307950051,27.385575 C0.00995321337,26.1148922 1.03341828,25.0879474 2.29469329,25.0861901 L50.5829365,25.0861901 C51.1731525,25.0639664 54.0897612,24.8126827 55.9079095,23.7918365 C54.4022587,21.3938402 53.9760885,18.5888905 54.6768994,15.6025328 C55.0478747,14.0393232 55.6798459,12.5510543 56.5455234,11.2009862 L57.2367932,10.195955 L58.2878557,10.8066435 C58.4803196,10.9210701 62.7732098,13.4717385 63.5307545,18.703317 C64.5499107,18.530075 65.5812754,18.4407665 66.6147946,18.4362183 C70.5289124,18.4362183 72.3849174,19.8482029 72.5837421,20.0072837 Z M6.77060889,23.6614915 C6.45852181,23.6614915 6.20563073,23.4065901 6.20563073,23.0921496 L6.20563073,17.2849238 C6.20563073,17.2838901 6.20563073,17.2827531 6.20563073,17.2817194 C6.20563073,16.9673823 6.45852181,16.7124808 6.77060889,16.7124808 L13.2414401,16.7124808 C13.242466,16.7124808 13.2435946,16.7124808 13.2446205,16.7124808 C13.556605,16.714238 13.8081623,16.9704833 13.8064273,17.2849238 L13.8064273,23.0922529 C13.8064273,23.4065901 13.5535272,23.6614915 13.2414401,23.6614915 L6.77060889,23.6614915 Z M15.6877637,23.6614915 C15.3751637,23.6614915 15.1213493,23.4071069 15.1195026,23.0921496 L15.1195026,17.2849238 C15.1195026,16.968726 15.37383,16.7124808 15.6876611,16.7124808 L22.1584924,16.7124808 C22.1595183,16.7124808 22.1606468,16.7124808 22.1616727,16.7124808 C22.4737598,16.714238 22.7253172,16.9704833 22.7235821,17.2849238 L22.7235821,23.0922529 C22.7235821,23.4065901 22.470682,23.6614915 22.1585949,23.6614915 L15.6877637,23.6614915 Z M24.7405462,23.6614915 C24.4285617,23.6614915 24.175568,23.4065901 24.1754654,23.0921496 L24.1754654,17.2849238 C24.1754654,17.2838901 24.1754654,17.2827531 24.1754654,17.2817194 C24.1754654,16.9673823 24.4283565,16.7124808 24.7404436,16.7124808 L31.2112748,16.7124808 C31.2123007,16.7124808 31.2134292,16.7124808 31.2144552,16.7124808 C31.5265422,16.714238 31.7780996,16.9704833 31.7763646,17.2849238 L31.7763646,23.0922529 C31.7763646,23.4065901 31.5234645,23.6614915 31.2113774,23.6614915 L24.7405462,23.6614915 Z M33.6861192,23.6614915 C33.3741347,23.6614915 33.121141,23.4065901 33.121141,23.0921496 L33.121141,17.2849238 C33.121141,17.2838901 33.121141,17.2827531 33.121141,17.2817194 C33.121141,16.9673823 33.3740321,16.7124808 33.6861192,16.7124808 L40.1569504,16.7124808 C40.4707816,16.7124808 40.7251089,16.968726 40.7251089,17.2849238 L40.7251089,23.0922529 C40.7233649,23.4072103 40.4695505,23.6614915 40.1569504,23.6614915 L33.6861192,23.6614915 Z M15.6877637,15.3068016 C15.3746507,15.3050444 15.1213493,15.0498328 15.1196052,14.7343587 L15.1196052,8.92713285 C15.1213493,8.61217553 15.3752663,8.35789427 15.6877637,8.35789427 L22.1585949,8.35789427 C22.4705794,8.35789427 22.7235731,8.61269236 22.7235731,8.92713285 L22.7235731,14.7343587 C22.7235731,15.0492126 22.4710924,15.3050444 22.1585949,15.3068016 L15.6877637,15.3068016 Z M24.7405462,15.3068016 C24.4280487,15.3050444 24.175568,15.0492126 24.175568,14.7343587 L24.175568,8.92713285 C24.175568,8.61279573 24.4284591,8.35789427 24.7405462,8.35789427 L31.2113774,8.35789427 C31.5233619,8.35789427 31.7763555,8.61269236 31.7763555,8.92713285 L31.7763555,14.7343587 C31.7763555,15.0492126 31.5238748,15.3050444 31.2113774,15.3068016 L24.7405462,15.3068016 Z M33.6861192,15.3068016 C33.3736217,15.3050444 33.121141,15.0492126 33.121141,14.7343587 L33.121141,8.92713285 C33.121141,8.61279573 33.3740321,8.35789427 33.6861192,8.35789427 L40.1569504,8.35789427 C40.4695505,8.35789427 40.7233649,8.61217553 40.7251089,8.92713285 L40.7251089,14.7343587 C40.7233649,15.0498328 40.4700634,15.3050444 40.1569504,15.3068016 L33.6861192,15.3068016 Z M33.6861192,6.9490107 C33.3741347,6.9490107 33.121141,6.69410924 33.121141,6.37966876 L33.121141,0.569238579 C33.121141,0.254798093 33.3740321,6.43929354e-14 33.6861192,6.43929354e-14 L40.1569504,6.43929354e-14 C40.4695505,6.43929354e-14 40.7233649,0.254281261 40.7251089,0.569238579 L40.7251089,6.37977212 C40.7233649,6.69462607 40.4695505,6.9490107 40.1569504,6.9490107 L33.6861192,6.9490107 Z M42.710586,23.6614915 C42.3986015,23.6614915 42.1456079,23.4065901 42.1456079,23.0921496 L42.1456079,17.2849238 C42.1456079,17.2838901 42.1456079,17.2827531 42.1456079,17.2817194 C42.1456079,16.9673823 42.3986015,16.7124808 42.710586,16.7124808 L49.1814173,16.7124808 C49.4952484,16.7124808 49.7495758,16.968726 49.7495758,17.2849238 L49.7495758,23.0922529 C49.7478317,23.4072103 49.4940173,23.6614915 49.1814173,23.6614915 L42.710586,23.6614915 Z"/>
</svg>
