<svg xmlns="http://www.w3.org/2000/svg" width="204" height="48" viewBox="0 0 204 48">
  <g fill="#FFF" fill-rule="evenodd">
    <path d="M203.796008,25.36494 L203.796008,26.3190205 C203.796008,27.6001285 203.531008,28.8232317 203.010008,29.9533271 C202.504008,31.05442 201.812008,32.0335026 200.957008,32.8645727 C200.101008,33.6936426 199.095008,34.3546984 197.966008,34.8287384 C196.828008,35.3077788 195.609008,35.5497992 194.343008,35.5497992 L192.057008,35.5497992 C190.792008,35.5497992 189.572008,35.3077788 188.434008,34.8287384 C187.305008,34.3546984 186.299008,33.6936426 185.444008,32.8645727 C184.588008,32.0335026 183.896008,31.0534199 183.390008,29.952327 C182.870008,28.8232317 182.605008,27.6001285 182.605008,26.3190205 L182.605008,24.1888408 L188.307008,24.1888408 L188.307008,26.3190205 C188.307008,26.8150623 188.408008,27.2801015 188.605008,27.700137 C188.818008,28.1521751 189.107008,28.5552091 189.466008,28.897238 C189.825008,29.241267 190.249008,29.51429 190.725008,29.7103066 C191.193008,29.9043229 191.693008,30.0023312 192.213008,30.0023312 L194.210008,30.0023312 C194.727008,30.0023312 195.222008,29.905323 195.681008,29.7123067 C196.153008,29.5152901 196.575008,29.241267 196.934008,28.897238 C197.294008,28.5552091 197.583008,28.1521751 197.796008,27.700137 C197.993008,27.2801015 198.093008,26.8150623 198.093008,26.3190205 L198.093008,25.36494 C198.093008,24.5328698 197.943008,23.8588129 197.647008,23.3587707 C197.321008,22.8057241 196.879008,22.3276837 196.333008,21.9356507 C195.718008,21.4936134 195.011008,21.1145814 194.230008,20.8045552 C193.342008,20.4515254 192.430008,20.1004958 191.492008,19.7484661 C190.511008,19.3804351 189.544008,18.9684003 188.615008,18.5233628 C187.599008,18.0363217 186.674008,17.4182695 185.867008,16.6862078 C185.018008,15.9161428 184.330008,14.9670627 183.823008,13.8639697 C183.309008,12.7488756 183.048008,11.3917611 183.048008,9.83062939 L183.048008,9.23157885 C183.048008,7.96247178 183.293008,6.75036952 183.774008,5.63027502 C184.250008,4.52218154 184.915008,3.53609835 185.751008,2.70102789 C186.586008,1.86595744 187.576008,1.20090133 188.693008,0.723861087 C189.821008,0.243820587 191.035008,-0.0002 192.301008,-0.0002 L194.343008,-0.0002 C195.612008,-0.0002 196.824008,0.243820587 197.943008,0.724861171 C199.051008,1.20190142 200.038008,1.86695753 200.872008,2.70102789 C201.708008,3.53609835 202.373008,4.52218154 202.848008,5.63127511 C203.330008,6.75036952 203.574008,7.96247178 203.574008,9.23157885 L203.574008,10.892719 L197.871008,10.892719 L197.871008,9.23157885 C197.871008,8.71953566 197.776008,8.24149532 197.589008,7.81045896 C197.395008,7.36442133 197.129008,6.969388 196.800008,6.64036024 C196.470008,6.31133248 196.078008,6.04531004 195.630008,5.85229376 C195.199008,5.66427789 194.721008,5.57026996 194.210008,5.57026996 L192.435008,5.57026996 C191.923008,5.57026996 191.446008,5.66427789 191.013008,5.85229376 C190.564008,6.04731021 190.164008,6.31533282 189.825008,6.649361 C189.492008,6.97638859 189.225008,7.36742158 189.034008,7.80945888 C188.846008,8.24149532 188.752008,8.71953566 188.752008,9.23157885 L188.752008,9.83062939 C188.752008,10.5796926 188.896008,11.1947445 189.183008,11.6577835 C189.508008,12.1858281 189.950008,12.6458669 190.496008,13.025899 C191.115008,13.4579354 191.830008,13.8399676 192.625008,14.1619948 C193.516008,14.5230253 194.434008,14.8920564 195.379008,15.2680881 C196.359008,15.6591211 197.327008,16.0951579 198.254008,16.5621973 C199.263008,17.0702402 200.183008,17.7062938 200.989008,18.4533569 C201.835008,19.237423 202.520008,20.2005043 203.025008,21.3165984 C203.537008,22.4456937 203.796008,23.8068085 203.796008,25.36494 Z M172.911018,2.70102789 C173.747018,3.53609835 174.411018,4.52218154 174.886018,5.63127511 C175.368018,6.75036952 175.612018,7.96247178 175.612018,9.23157885 L175.612018,26.3190205 C175.612018,27.5881275 175.368018,28.8002298 174.886018,29.9193242 C174.411018,31.0284178 173.747018,32.0125008 172.911018,32.8485713 C172.075018,33.6846419 171.089018,34.3486979 169.981018,34.8247381 C168.863018,35.3057786 167.651018,35.5497992 166.381018,35.5497992 L164.118018,35.5497992 C162.850018,35.5497992 161.637018,35.3067787 160.509018,34.8257382 C159.392018,34.349698 158.403018,33.6846419 157.567018,32.8485713 C156.731018,32.0135009 156.066018,31.0284178 155.591018,29.9183241 C155.109018,28.8002298 154.865018,27.5881275 154.865018,26.3190205 L154.865018,9.23157885 C154.865018,7.96247178 155.109018,6.75036952 155.591018,5.63027502 C156.066018,4.52218154 156.731018,3.53609835 157.567018,2.70102789 C158.403018,1.86595744 159.392018,1.20090133 160.509018,0.723861087 C161.637018,0.243820587 162.850018,-0.0002 164.118018,-0.0002 L166.381018,-0.0002 C167.651018,-0.0002 168.862018,0.243820587 169.981018,0.724861171 C171.090018,1.20190142 172.076018,1.86695753 172.911018,2.70102789 Z M169.90703,26.3190205 L169.90703,9.23157885 C169.90703,8.71953566 169.81103,8.24149532 169.62503,7.81045896 C169.43003,7.36442133 169.16503,6.969388 168.83503,6.64036024 C168.50503,6.31133248 168.11303,6.04531004 167.66703,5.85229376 C167.23503,5.66427789 166.75603,5.57026996 166.24603,5.57026996 L164.24903,5.57026996 C163.73703,5.57026996 163.25903,5.66427789 162.82703,5.85229376 C162.37603,6.04731021 161.97603,6.31533282 161.63803,6.649361 C161.30503,6.97638859 161.03903,7.36742158 160.84703,7.80945888 C160.66003,8.24149532 160.56503,8.71953566 160.56503,9.23157885 L160.56503,26.3190205 C160.56503,26.8290635 160.66003,27.3081039 160.84703,27.7391403 C161.04103,28.186178 161.31003,28.5832115 161.64603,28.9202399 C161.98303,29.2572684 162.38003,29.5262911 162.82703,29.7193073 C163.25903,29.9073232 163.73703,30.0023312 164.24903,30.0023312 L166.24603,30.0023312 C166.75603,30.0023312 167.23503,29.9073232 167.66603,29.7203074 C168.10803,29.5282912 168.50003,29.2622688 168.82803,28.9282406 C169.16203,28.5882119 169.42903,28.1881782 169.62403,27.7401404 C169.81103,27.3081039 169.90703,26.8290635 169.90703,26.3190205 Z M125.287004,5.63127511 C125.770004,6.75036952 126.014004,7.96247178 126.014004,9.23157885 L126.014004,10.892719 L120.311004,10.892719 L120.311004,9.23157885 C120.311004,8.71953566 120.216004,8.24149532 120.028004,7.81045896 C119.834004,7.36442133 119.569004,6.969388 119.240004,6.64036024 C118.910004,6.31133248 118.517004,6.04531004 118.070004,5.85229376 C117.639004,5.66427789 117.161004,5.57026996 116.649004,5.57026996 L114.652004,5.57026996 C114.141004,5.57026996 113.663004,5.66427789 113.232004,5.85229376 C112.781004,6.04731021 112.381004,6.31533282 112.042004,6.649361 C111.710004,6.97638859 111.443004,7.36742158 111.252004,7.80945888 C111.065004,8.24149532 110.969004,8.71953566 110.969004,9.23157885 L110.969004,26.3190205 C110.969004,26.8290635 111.065004,27.3081039 111.251004,27.7391403 C111.445004,28.186178 111.714004,28.5832115 112.051004,28.9202399 C112.388004,29.2572684 112.785004,29.5262911 113.232004,29.7193073 C113.663004,29.9073232 114.141004,30.0023312 114.652004,30.0023312 L116.649004,30.0023312 C117.161004,30.0023312 117.639004,29.9073232 118.069004,29.7203074 C118.513004,29.5282912 118.903004,29.2622688 119.232004,28.9282406 C119.566004,28.5882119 119.834004,28.1881782 120.027004,27.7401404 C120.216004,27.3081039 120.311004,26.8290635 120.311004,26.3190205 L120.311004,24.1888408 L126.014004,24.1888408 L126.014004,26.3190205 C126.014004,27.5881275 125.770004,28.8002298 125.287004,29.9193242 C124.813004,31.0284178 124.148004,32.0125008 123.312004,32.8485713 C122.476004,33.6846419 121.490004,34.3486979 120.383004,34.8247381 C119.264004,35.3057786 118.052004,35.5497992 116.782004,35.5497992 L114.520004,35.5497992 C113.252004,35.5497992 112.039004,35.3067787 110.912004,34.8257382 C109.794004,34.349698 108.804004,33.6846419 107.968004,32.8485713 C107.132004,32.0125008 106.468004,31.0284178 105.992004,29.9183241 C105.511004,28.8002298 105.267004,27.5881275 105.267004,26.3190205 L105.267004,9.23157885 C105.267004,7.96247178 105.511004,6.75036952 105.992004,5.63027502 C106.468004,4.52218154 107.132004,3.53609835 107.968004,2.70102789 C108.804004,1.86595744 109.794004,1.20090133 110.911004,0.723861087 C112.039004,0.243820587 113.252004,-0.0002 114.520004,-0.0002 L116.782004,-0.0002 C118.052004,-0.0002 119.263004,0.243820587 120.383004,0.724861171 C121.491004,1.20190142 122.477004,1.86695753 123.312004,2.70102789 C124.148004,3.53609835 124.813004,4.52218154 125.287004,5.63127511 Z M95.5650043,3.14606544 C96.4000043,3.98113589 97.0660043,4.97121942 97.5420043,6.08831367 C98.0240043,7.21640884 98.2670043,8.43051127 98.2670043,9.69761817 L98.2670043,25.8739829 C98.2670043,27.1440901 98.0230043,28.3561923 97.5400043,29.4762868 C97.0660043,30.5833802 96.4000043,31.5684633 95.5650043,32.4045339 C94.7300043,33.2396043 93.7390043,33.9056605 92.6220043,34.3817007 C91.4940043,34.8637414 90.2810043,35.1067619 89.0140043,35.1067619 L77.5200043,35.1067619 L77.5200043,0.443837462 L89.0140043,0.443837462 C90.2810043,0.443837462 91.4940043,0.687858049 92.6210043,1.16789855 C93.7390043,1.64493879 94.7300043,2.31099499 95.5650043,3.14606544 Z M92.5640043,25.8739829 L92.5640043,9.69761817 C92.5640043,9.18657506 92.4690043,8.70853473 92.2810043,8.27649828 C92.0880043,7.82946056 91.8180043,7.43242707 91.4820043,7.09539863 C91.1450043,6.7583702 90.7470043,6.4893475 90.3010043,6.29533113 C89.8690043,6.10831536 89.3920043,6.01330734 88.8800043,6.01330734 L83.2220043,6.01330734 L83.2220043,29.5352918 L88.8800043,29.5352918 C89.3920043,29.5352918 89.8690043,29.4412839 90.3010043,29.2542681 C90.7500043,29.0592517 91.1500043,28.790229 91.4900043,28.4572009 C91.8240043,28.1291732 92.0890043,27.7381402 92.2800043,27.2961029 C92.4690043,26.8640665 92.5640043,26.3860261 92.5640043,25.8739829 Z"/>
    <polygon points="145.14 .001 129.97 35.547 134.704 35.547 149.87 .001"/>
    <path d="M9.41668501,4.0235 L32.1539244,17.3605 L51.3172834,4.0235 L9.41668501,4.0235 Z M35.9757966,19.6015 L42.180589,23.2425 L50.881298,9.2285 L35.9757966,19.6015 Z M8.01173201,7.8635 L19.4123507,26.2275 L28.5180461,19.8915 L8.01173201,7.8635 Z M45.6514729,25.2775 L55.7171362,31.1815 L55.7171362,9.0655 L45.6514729,25.2775 Z M4.02286543,9.0655 L4.02286543,36.9375 L16.1054613,28.5285 L4.02286543,9.0655 Z M21.5372796,29.6505 L29.8700008,43.0705 L40.05866,26.6605 L32.3389183,22.1325 L21.5372796,29.6505 Z M29.8690009,47.3975 C28.5670444,47.3975 27.3680845,46.6685 26.578111,45.3965 L26.578111,45.3955 L18.2303902,31.9515 L5.62281192,40.7265 C4.34285473,41.6175 2.94890136,41.7855 1.80393966,41.1865 C0.656978024,40.5875 0,39.3495 0,37.7885 L0,5.0115 C0,3.0635 1.11696264,1.3715 2.74490818,0.5435 C3.24189156,0.2275 3.96286744,0.0015 5.00683252,0.0005 L5.00783249,0.0005 L5.01183235,0.0005 L54.7281693,0.0005 L54.7321692,0.0005 L54.7331692,0.0005 C55.7061366,0.0015 56.4011134,0.2055 56.8980967,0.4945 C58.5780405,1.3045 59.7400017,3.0245 59.7400017,5.0115 L59.7400017,31.6935 C59.7400017,33.2205 59.0950233,34.4665 57.9690609,35.1125 C56.8420986,35.7565 55.4391455,35.6835 54.1231896,34.9115 L43.528544,28.6965 L33.1608908,45.3955 C32.3709172,46.6685 31.1719573,47.3975 29.8690009,47.3975 Z"/>
  </g>
</svg>
