<svg xmlns="http://www.w3.org/2000/svg" width="204" height="37" viewBox="0 0 204 37">
  <path fill="#FFF" d="M28.1614293 34.9835772C27.5138394 35.8524408 26.5069976 36.3220994 25.4485785 36.2261905L11.8989621 36.2261905 11.839541 36.2244443C10.9094128 36.1697309 9.98672264 35.7450005 9.32153257 35.0798104L9.28373974 35.0420176.709662209 24.4361681.673160325 24.3881577C.109009347 23.5983463-.113394746 22.6345953.0548358313 21.6812887L.0647489236 21.6322354 3.10205182 8.3087102C3.33252605 7.32919473 3.97571682 6.54481575 4.8620035 6.1313024L17.300608.136302873 17.4011581.111165327C17.6186577.0567904461 17.8440224.0265175681 18.0931124.0118652176 18.2621523.00192169164 18.3909057-7.10542736e-15 18.6584859-7.10542736e-15 19.1933624-7.10542736e-15 19.6742223.0848576375 20.1073001.301563783L32.4525382 6.21108759 32.4918192 6.23095238C33.3460126 6.68652221 33.9978474 7.42724358 34.2767096 8.31960269L34.2965011 8.39235149 37.3854475 21.6829498 37.3920311 21.7389106C37.5031664 22.6835609 37.2722432 23.6216865 36.7247638 24.3881577L36.6882619 24.4361681 28.1614293 34.9835772zM31.4084859 21.3309524C31.3680097 21.3309524 31.3275335 21.3309524 31.3275335 21.2904762 31.3275335 21.25 31.2465811 21.25 31.1656287 21.25 31.003724 21.2095238 30.8418192 21.2095238 30.6799144 21.2095238 30.5989621 21.2095238 30.5180097 21.2095238 30.4370573 21.1690476L30.3965811 21.1690476C29.951343 21.1285714 29.4656287 21.047619 29.0203906 20.9261905 28.8989621 20.8857143 28.7775335 20.7642857 28.7370573 20.6428571 28.7775335 20.6428571 28.7370573 20.6428571 28.7370573 20.6428571L28.4132478 20.5619048C28.5751525 19.3880952 28.4942001 18.1738095 28.251343 17 27.9680097 15.8261905 27.4822954 14.6928571 26.8346763 13.6809524L27.0775335 13.4380952 27.0775335 13.397619C27.0775335 13.2761905 27.1180097 13.1142857 27.1989621 13.0333333 27.5632478 12.7095238 27.9275335 12.4666667 28.3322954 12.2238095 28.4132478 12.1833333 28.4942001 12.1428571 28.5751525 12.102381 28.7370573 12.0214286 28.8584859 11.9404762 29.0203906 11.8595238 29.0608668 11.8190476 29.101343 11.8190476 29.1418192 11.7785714 29.1822954 11.7380952 29.1418192 11.7380952 29.1418192 11.697619 29.5061049 11.4142857 29.5870573 10.9285714 29.303724 10.5642857 29.1822954 10.402381 28.9394382 10.2809524 28.7370573 10.2809524 28.5346763 10.2809524 28.3322954 10.3619048 28.1703906 10.4833333L28.1299144 10.5238095C28.0894382 10.5642857 28.0489621 10.6047619 28.0084859 10.6047619 27.8870573 10.7261905 27.7656287 10.847619 27.6846763 10.9690476 27.6442001 11.05 27.5632478 11.0904762 27.5227716 11.1309524 27.2394382 11.4547619 26.8751525 11.7785714 26.5108668 12.0214286 26.4299144 12.0619048 26.3489621 12.102381 26.2680097 12.102381 26.2275335 12.102381 26.1465811 12.102381 26.1061049 12.0619048L26.0656287 12.0619048 25.7418192 12.2642857C25.4180097 11.9404762 25.053724 11.6166667 24.7299144 11.2928571 23.2322954 10.1190476 21.3703906 9.39047619 19.4680097 9.18809524L19.4275335 8.86428571 19.4275335 8.9047619C19.3061049 8.82380952 19.2656287 8.70238095 19.2251525 8.58095238 19.2251525 8.13571429 19.2251525 7.69047619 19.3061049 7.2047619L19.3061049 7.16428571C19.3061049 7.08333333 19.3465811 7.00238095 19.3465811 6.92142857 19.3870573 6.75952381 19.3870573 6.59761905 19.4275335 6.43571429L19.4275335 6.19285714C19.4680097 5.78809524 19.1442001 5.38333333 18.7394382 5.34285714 18.4965811 5.30238095 18.253724 5.42380952 18.051343 5.62619048 17.8894382 5.78809524 17.8084859 5.99047619 17.8084859 6.19285714L17.8084859 6.3952381C17.8084859 6.55714286 17.8489621 6.71904762 17.8894382 6.88095238 17.9299144 6.96190476 17.9299144 7.04285714 17.9299144 7.12380952L17.9299144 7.16428571C18.0108668 7.60952381 18.0108668 8.0547619 18.0108668 8.54047619 17.9703906 8.66190476 17.9299144 8.78333333 17.8084859 8.86428571L17.8084859 8.9452381 17.7680097 9.26904762C17.3227716 9.30952381 16.8775335 9.39047619 16.3918192 9.47142857 14.4894382 9.87619048 12.7489621 10.8880952 11.4132478 12.3047619L11.1703906 12.1428571 11.1299144 12.1428571C11.0894382 12.1428571 11.0489621 12.1833333 10.9680097 12.1833333 10.8870573 12.1833333 10.8061049 12.1428571 10.7251525 12.102381 10.3608668 11.8190476 9.9965811 11.4952381 9.71324777 11.1714286 9.67277158 11.0904762 9.59181919 11.05 9.551343 11.0095238 9.42991443 10.8880952 9.34896205 10.7666667 9.22753348 10.6452381 9.18705729 10.6047619 9.1465811 10.6047619 9.10610491 10.5642857 9.06562872 10.5238095 9.06562872 10.5238095 9.06562872 10.5238095 8.90372396 10.402381 8.701343 10.3214286 8.49896205 10.3214286 8.25610491 10.3214286 8.05372396 10.402381 7.93229538 10.6047619 7.68943824 10.9690476 7.77039062 11.4547619 8.09420015 11.7380952 8.13467634 11.7380952 8.13467634 11.7785714 8.13467634 11.7785714 8.13467634 11.7785714 8.21562872 11.8595238 8.25610491 11.8595238 8.37753348 11.9404762 8.53943824 12.0214286 8.701343 12.102381 8.78229538 12.1428571 8.86324777 12.1833333 8.94420015 12.2238095 9.34896205 12.4666667 9.75372396 12.7095238 10.0775335 13.0333333 10.1584859 13.1142857 10.2394382 13.2761905 10.1989621 13.397619L10.1989621 13.3571429 10.4418192 13.6C10.401343 13.6809524 10.3608668 13.7214286 10.3203906 13.802381 9.06562872 15.7857143 8.53943824 18.1333333 8.90372396 20.4404762L8.57991443 20.5214286C8.57991443 20.5619048 8.53943824 20.5619048 8.53943824 20.5619048 8.49896205 20.6833333 8.37753348 20.7642857 8.25610491 20.8452381 7.81086681 20.9666667 7.36562872 21.047619 6.87991443 21.0880952 6.79896205 21.0880952 6.71800967 21.0880952 6.63705729 21.1285714 6.47515253 21.1285714 6.31324777 21.1690476 6.151343 21.1690476 6.11086681 21.1690476 6.07039062 21.2095238 5.98943824 21.2095238 5.94896205 21.2095238 5.94896205 21.2095238 5.90848586 21.25 5.46324777 21.3309524 5.17991443 21.7357143 5.26086681 22.1809524 5.34181919 22.5452381 5.70610491 22.7880952 6.07039062 22.747619 6.151343 22.747619 6.19181919 22.747619 6.27277158 22.7071429 6.31324777 22.7071429 6.31324777 22.7071429 6.31324777 22.6666667 6.31324777 22.6261905 6.43467634 22.6666667 6.47515253 22.6666667 6.63705729 22.6261905 6.79896205 22.5452381 6.92039062 22.5047619 7.001343 22.4642857 7.08229538 22.4238095 7.16324777 22.4238095L7.20372396 22.4238095C7.64896205 22.2619048 8.05372396 22.1404762 8.53943824 22.0595238L8.57991443 22.0595238C8.701343 22.0595238 8.82277158 22.1 8.90372396 22.1809524 8.94420015 22.1809524 8.94420015 22.2214286 8.94420015 22.2214286L9.30848586 22.1809524C9.91562872 24.0428571 11.0489621 25.702381 12.6275335 26.9166667 12.9918192 27.2 13.3156287 27.4428571 13.7203906 27.6452381L13.5180097 27.9285714C13.5180097 27.9690476 13.5584859 27.9690476 13.5584859 27.9690476 13.6394382 28.0904762 13.6394382 28.252381 13.5989621 28.3738095 13.4370573 28.7785714 13.1942001 29.1833333 12.951343 29.547619L12.951343 29.5880952C12.9108668 29.6690476 12.8703906 29.7095238 12.7894382 29.7904762 12.7084859 29.8714286 12.6275335 30.0333333 12.5061049 30.1952381 12.4656287 30.2357143 12.4656287 30.2761905 12.4251525 30.3166667 12.4251525 30.3166667 12.4251525 30.3571429 12.3846763 30.3571429 12.1822954 30.7619048 12.3442001 31.247619 12.7084859 31.45 12.7894382 31.4904762 12.9108668 31.5309524 12.9918192 31.5309524 13.3156287 31.5309524 13.5989621 31.3285714 13.7608668 31.0452381 13.7608668 31.0452381 13.7608668 31.0047619 13.801343 31.0047619 13.801343 30.9642857 13.8418192 30.9238095 13.8822954 30.8833333 13.9227716 30.7214286 14.003724 30.6 14.0442001 30.4380952L14.1251525 30.1952381C14.2465811 29.75 14.4489621 29.3452381 14.651343 28.9404762 14.7322954 28.8190476 14.853724 28.7380952 14.9751525 28.697619 15.0156287 28.697619 15.0156287 28.697619 15.0156287 28.6571429L15.1775335 28.3333333C16.3108668 28.7785714 17.4846763 28.9809524 18.6989621 28.9809524 19.4275335 28.9809524 20.1561049 28.9 20.8846763 28.697619 21.3299144 28.6166667 21.7751525 28.4547619 22.1799144 28.3333333L22.3418192 28.6166667C22.3822954 28.6166667 22.3822954 28.6166667 22.3822954 28.6571429 22.503724 28.697619 22.6251525 28.7785714 22.7061049 28.9 22.9084859 29.3047619 23.1108668 29.7095238 23.2322954 30.1547619L23.2322954 30.1952381 23.3132478 30.4380952C23.353724 30.6 23.3942001 30.7619048 23.4751525 30.8833333 23.5156287 30.9238095 23.5156287 30.9642857 23.5561049 31.0047619 23.5561049 31.0047619 23.5561049 31.0452381 23.5965811 31.0452381 23.7584859 31.3285714 24.0418192 31.5309524 24.3656287 31.5309524 24.4870573 31.5309524 24.5680097 31.4904762 24.6894382 31.45 24.851343 31.3690476 25.0132478 31.2071429 25.053724 31.0047619 25.0942001 30.802381 25.0942001 30.6 25.0132478 30.397619 25.0132478 30.3571429 24.9727716 30.3571429 24.9727716 30.3571429 24.9727716 30.3166667 24.9322954 30.2761905 24.8918192 30.2357143 24.8108668 30.0738095 24.7299144 29.952381 24.6084859 29.8309524 24.5680097 29.75 24.5275335 29.7095238 24.4465811 29.6285714L24.4465811 29.547619C24.1632478 29.1833333 23.9608668 28.7785714 23.7989621 28.3738095 23.7584859 28.252381 23.7584859 28.0904762 23.8394382 27.9690476 23.8394382 27.9285714 23.8799144 27.9285714 23.8799144 27.9285714L23.7584859 27.6047619C25.8227716 26.35 27.401343 24.4071429 28.1299144 22.1L28.453724 22.1404762C28.4942001 22.1404762 28.4942001 22.1 28.4942001 22.1 28.5751525 22.0190476 28.6965811 21.9785714 28.8180097 21.9785714L28.8584859 21.9785714C29.303724 22.0595238 29.7489621 22.1809524 30.153724 22.3428571L30.1942001 22.3428571C30.2751525 22.3833333 30.3561049 22.4238095 30.4370573 22.4238095 30.5989621 22.5047619 30.7203906 22.5857143 30.8822954 22.6261905 30.9227716 22.6261905 30.9632478 22.6666667 31.0442001 22.6666667 31.0846763 22.6666667 31.0846763 22.6666667 31.1251525 22.7071429 31.2061049 22.747619 31.2465811 22.747619 31.3275335 22.747619 31.6918192 22.747619 32.0156287 22.5047619 32.1370573 22.1809524 32.0965811 21.7357143 31.7727716 21.4119048 31.4084859 21.3309524zM19.7108668 20.0761905L18.6180097 20.602381 17.5251525 20.0761905 17.2418192 18.902381 18.0108668 17.9309524 19.2251525 17.9309524 19.9942001 18.902381 19.7108668 20.0761905zM26.3084859 17.4452381C26.5108668 18.2952381 26.551343 19.1452381 26.4703906 19.9952381L22.6251525 18.902381C22.2608668 18.8214286 22.0584859 18.4571429 22.1394382 18.0928571 22.1799144 17.9714286 22.2203906 17.8904762 22.301343 17.8095238L25.3370573 15.0571429C25.7822954 15.7857143 26.1061049 16.5952381 26.3084859 17.4452381zM24.1227716 13.5595238L20.803724 15.9071429C20.5203906 16.0690476 20.1156287 16.0285714 19.9132478 15.7452381 19.8322954 15.6642857 19.7918192 15.5833333 19.7918192 15.4619048L19.5489621 11.3738095C21.3299144 11.5761905 22.9084859 12.3452381 24.1227716 13.5595238zM16.7965811 11.4952381L17.6061049 11.3333333 17.403724 15.3809524C17.403724 15.7452381 17.0799144 16.0285714 16.7156287 16.0285714 16.5942001 16.0285714 16.5132478 15.9880952 16.3918192 15.947619L13.0322954 13.5595238C14.0846763 12.547619 15.3799144 11.8190476 16.7965811 11.4952381zM11.8584859 15.0571429L14.853724 17.7285714C15.1370573 17.9714286 15.1775335 18.3761905 14.9346763 18.6595238 14.853724 18.7809524 14.7727716 18.8214286 14.6108668 18.8619048L10.6846763 19.9952381C10.5632478 18.2952381 10.9680097 16.5547619 11.8584859 15.0571429zM11.1703906 21.897619L15.1775335 21.2095238C15.501343 21.2095238 15.8251525 21.4119048 15.8656287 21.7357143 15.9061049 21.8571429 15.9061049 22.0190476 15.8251525 22.1404762L14.2870573 25.8642857C12.8703906 24.9333333 11.7370573 23.5166667 11.1703906 21.897619zM20.3584859 26.9166667C19.7918192 27.0380952 19.2251525 27.1190476 18.6180097 27.1190476 17.7680097 27.1190476 16.8775335 26.9571429 16.0680097 26.7142857L18.051343 23.1119048C18.253724 22.8690476 18.5775335 22.7880952 18.8608668 22.95 18.9822954 23.0309524 19.0632478 23.1119048 19.1846763 23.2333333L21.1275335 26.7547619C20.8846763 26.7952381 20.6418192 26.8357143 20.3584859 26.9166667zM25.2965811 23.3952381C24.6894382 24.3666667 23.8394382 25.2166667 22.8680097 25.8238095L21.2894382 22.0190476C21.2084859 21.6952381 21.3703906 21.3714286 21.653724 21.25 21.7751525 21.2095238 21.8965811 21.1690476 22.0180097 21.1690476L26.0656287 21.8571429C25.8632478 22.4238095 25.6203906 22.95 25.2965811 23.3952381zM51.8489621 19.5904762C52.2942001 19.1047619 52.6989621 18.6190476 53.1846763 18.1333333 53.6299144 17.6071429 54.0751525 17.1214286 54.5203906 16.6357143 54.9656287 16.1095238 55.3703906 15.6642857 55.7346763 15.2190476 56.0989621 14.7738095 56.4632478 14.3690476 56.7465811 14.0452381L61.9275335 14.0452381C60.8751525 15.2190476 59.8632478 16.3928571 58.8918192 17.4857143 57.8799144 18.5785714 56.8275335 19.7119048 55.653724 20.8452381 56.301343 21.452381 56.9084859 22.0595238 57.4751525 22.747619 58.0822954 23.4761905 58.6894382 24.2047619 59.2965811 25.0142857 59.8632478 25.7833333 60.4299144 26.5928571 60.9156287 27.3619048 61.401343 28.1309524 61.8061049 28.8595238 62.1299144 29.5071429L57.1108668 29.5071429C56.7870573 28.9809524 56.4227716 28.4547619 56.0180097 27.847619 55.6132478 27.2404762 55.1680097 26.6333333 54.7632478 25.9857143 54.3180097 25.3785714 53.8322954 24.7714286 53.3061049 24.2047619 52.8608668 23.6785714 52.3751525 23.1928571 51.8489621 22.7880952L51.8489621 29.547619 47.4775335 29.547619 47.4775335 7.36666667 51.8489621 6.67857143 51.8489621 19.5904762M77.3489621 28.9C76.4180097 29.1428571 75.4465811 29.3452381 74.4751525 29.4666667 73.2608668 29.6690476 72.0061049 29.75 70.7918192 29.75 69.6584859 29.7904762 68.5656287 29.5880952 67.5132478 29.2238095 66.703724 28.9 66.0156287 28.4142857 65.4489621 27.7666667 64.9227716 27.0785714 64.5584859 26.3095238 64.3561049 25.4595238 64.1132478 24.5285714 64.0322954 23.5166667 64.0322954 22.5452381L64.0322954 14.0047619 68.403724 14.0047619 68.403724 22.0595238C68.403724 23.4761905 68.6061049 24.4880952 68.9703906 25.0952381 69.3346763 25.702381 70.0227716 26.0261905 71.0346763 26.0261905 71.3584859 26.0261905 71.6822954 26.0261905 72.0465811 25.9857143 72.4108668 25.9452381 72.6942001 25.9452381 72.9775335 25.8642857L72.9775335 14.0047619 77.3489621 14.0047619 77.3489621 28.9M91.353724 21.6142857C91.353724 18.7809524 90.301343 17.4047619 88.2370573 17.4047619 87.7918192 17.4047619 87.3465811 17.4452381 86.901343 17.5666667 86.5370573 17.647619 86.1727716 17.8095238 85.8489621 18.0119048L85.8489621 25.9452381C86.051343 25.9857143 86.3346763 26.0261905 86.6584859 26.0666667 86.9822954 26.1071429 87.3465811 26.1071429 87.751343 26.1071429 88.803724 26.1880952 89.8156287 25.7428571 90.4632478 24.8928571 91.0703906 23.9214286 91.3942001 22.7880952 91.353724 21.6142857M95.8061049 21.7761905C95.8061049 22.9095238 95.6442001 24.0428571 95.2394382 25.1357143 94.9156287 26.1071429 94.3894382 26.9571429 93.701343 27.6857143 92.9727716 28.4142857 92.1227716 28.9809524 91.1918192 29.3452381 90.0989621 29.75 88.9656287 29.9119048 87.7918192 29.9119048 87.2656287 29.9119048 86.6989621 29.8714286 86.1322954 29.8309524 85.5656287 29.7904762 84.9989621 29.7095238 84.4322954 29.6690476 83.9061049 29.5880952 83.3799144 29.5071429 82.853724 29.3857143 82.3275335 29.3047619 81.8822954 29.1833333 81.5180097 29.0214286L81.5180097 7.36666667 85.8894382 6.67857143 85.8894382 14.3690476C86.3751525 14.1666667 86.901343 14.0047619 87.4275335 13.8833333 87.9942001 13.7619048 88.5608668 13.7214286 89.1275335 13.7214286 90.1394382 13.7214286 91.1108668 13.8833333 92.0418192 14.3285714 92.851343 14.6928571 93.5799144 15.2595238 94.1465811 15.947619 94.753724 16.7166667 95.1989621 17.5666667 95.4418192 18.497619 95.6846763 19.5095238 95.8061049 20.6428571 95.8061049 21.7761905M98.4370573 21.8571429C98.3965811 20.6428571 98.6394382 19.4285714 99.0442001 18.2952381 99.4084859 17.3238095 99.9751525 16.4738095 100.703724 15.7047619 101.391819 15.0166667 102.160867 14.4904762 103.051343 14.1666667 103.941819 13.802381 104.872772 13.6404762 105.803724 13.6404762 107.989438 13.6404762 109.729914 14.3285714 110.984676 15.6642857 112.239438 17 112.887057 18.9833333 112.887057 21.5333333 112.887057 21.7761905 112.887057 22.0595238 112.846581 22.3833333 112.806105 22.7071429 112.806105 22.95 112.806105 23.1928571L102.889438 23.1928571C102.970391 24.0428571 103.415629 24.852381 104.1442 25.3380952 105.034676 25.9047619 106.087057 26.1880952 107.139438 26.147619 107.908486 26.147619 108.71801 26.0666667 109.487057 25.9452381 110.134676 25.8238095 110.782295 25.6214286 111.389438 25.3785714L111.996581 28.9404762C111.713248 29.102381 111.389438 29.1833333 111.065629 29.3047619 110.620391 29.4261905 110.175153 29.547619 109.729914 29.5880952 109.2442 29.6690476 108.758486 29.75 108.191819 29.8309524 107.665629 29.8714286 107.098962 29.9119048 106.532295 29.9119048 105.277533 29.952381 104.063248 29.75 102.889438 29.3047619 101.91801 28.9404762 101.06801 28.3738095 100.339438 27.6452381 99.651343 26.9166667 99.1656287 26.0261905 98.8418192 25.0952381 98.5989621 24.002381 98.4370573 22.95 98.4370573 21.8571429M108.71801 20.197619C108.71801 19.8333333 108.637057 19.4690476 108.515629 19.1047619 108.434676 18.7404762 108.232295 18.4571429 108.029914 18.1738095 107.787057 17.8904762 107.503724 17.647619 107.179914 17.4857143 106.775153 17.2833333 106.370391 17.202381 105.925153 17.202381 105.479914 17.202381 105.075153 17.2833333 104.670391 17.4857143 104.346581 17.647619 104.022772 17.85 103.779914 18.1333333 103.537057 18.4166667 103.334676 18.7404762 103.213248 19.1047619 103.091819 19.4690476 103.010867 19.8333333 102.970391 20.197619L108.71801 20.197619M125.596581 17.8904762C125.191819 17.8095238 124.746581 17.6880952 124.220391 17.6071429 123.653724 17.4857143 123.087057 17.4452381 122.520391 17.4452381 122.196581 17.4452381 121.872772 17.4857143 121.508486 17.5261905 121.225153 17.5666667 120.941819 17.6071429 120.658486 17.6880952L120.658486 29.4666667 116.287057 29.4666667 116.287057 14.8142857C117.177533 14.4904762 118.108486 14.247619 119.039438 14.0452381 120.213248 13.7619048 121.427533 13.6404762 122.601343 13.6809524 122.884676 13.6809524 123.16801 13.7214286 123.451343 13.7214286 123.775153 13.7214286 124.098962 13.7619048 124.463248 13.8428571 124.787057 13.8833333 125.110867 13.9238095 125.475153 14.0047619 125.758486 14.0452381 126.041819 14.1261905 126.325153 14.247619L125.596581 17.8904762M128.672772 14.5309524C129.603724 14.2880952 130.575153 14.0857143 131.546581 13.9238095 132.760867 13.7214286 134.015629 13.6404762 135.229914 13.6404762 136.322772 13.6 137.415629 13.802381 138.46801 14.1666667 139.277533 14.45 140.006105 14.9357143 140.532295 15.5833333 141.058486 16.2309524 141.422772 17 141.625153 17.8095238 141.86801 18.7404762 141.948962 19.7119048 141.948962 20.6833333L141.948962 29.3857143 137.61801 29.3857143 137.61801 21.25C137.61801 19.8333333 137.415629 18.8619048 137.051343 18.2547619 136.687057 17.6880952 135.998962 17.3642857 134.987057 17.3642857 134.663248 17.3642857 134.339438 17.3642857 133.975153 17.4047619 133.610867 17.4047619 133.327533 17.4452381 133.0442 17.4857143L133.0442 29.3857143 128.672772 29.3857143 128.672772 14.5309524M145.26801 21.8571429C145.227533 20.6428571 145.470391 19.4285714 145.875153 18.2952381 146.239438 17.3238095 146.806105 16.4738095 147.534676 15.7047619 148.222772 15.0166667 148.991819 14.4904762 149.882295 14.1666667 150.772772 13.802381 151.703724 13.6404762 152.634676 13.6404762 154.820391 13.6404762 156.560867 14.3285714 157.815629 15.6642857 159.070391 17 159.71801 18.9833333 159.71801 21.5738095 159.71801 21.8166667 159.71801 22.1 159.677533 22.4238095 159.637057 22.747619 159.637057 22.9904762 159.637057 23.2333333L149.720391 23.2333333C149.801343 24.0833333 150.246581 24.8928571 150.975153 25.3785714 151.865629 25.9452381 152.91801 26.2285714 153.970391 26.1880952 154.739438 26.1880952 155.548962 26.1071429 156.31801 25.9857143 156.965629 25.8642857 157.613248 25.6619048 158.260867 25.3785714L158.86801 28.9404762C158.584676 29.102381 158.260867 29.1833333 157.937057 29.3047619 157.491819 29.4261905 157.046581 29.547619 156.601343 29.5880952 156.115629 29.6690476 155.629914 29.75 155.063248 29.8309524 154.537057 29.8714286 153.970391 29.9119048 153.403724 29.9119048 152.148962 29.952381 150.934676 29.75 149.760867 29.3047619 148.789438 28.9404762 147.939438 28.3738095 147.210867 27.6452381 146.522772 26.9166667 146.037057 26.0261905 145.713248 25.0952381 145.389438 24.002381 145.227533 22.9095238 145.26801 21.8571429M155.508486 20.197619C155.508486 19.8333333 155.427533 19.4690476 155.306105 19.1047619 155.225153 18.7404762 155.022772 18.4571429 154.820391 18.1738095 154.577533 17.8904762 154.2942 17.647619 153.970391 17.4857143 153.565629 17.2833333 153.160867 17.202381 152.715629 17.202381 152.270391 17.202381 151.865629 17.2833333 151.460867 17.4857143 151.137057 17.647619 150.853724 17.85 150.610867 18.1333333 150.36801 18.4166667 150.165629 18.7404762 150.0442 19.1047619 149.922772 19.4690476 149.841819 19.8333333 149.801343 20.197619L155.508486 20.197619M162.956105 10.1595238L167.327533 9.47142857 167.327533 14.0047619 172.589438 14.0047619 172.589438 17.647619 167.327533 17.647619 167.327533 23.0714286C167.287057 23.8404762 167.448962 24.6095238 167.813248 25.2571429 168.137057 25.7833333 168.784676 26.0666667 169.796581 26.0666667 170.282295 26.0666667 170.76801 26.0261905 171.213248 25.9452381 171.698962 25.8642857 172.1442 25.7428571 172.589438 25.5809524L173.196581 28.9809524C172.629914 29.2238095 172.022772 29.3857143 171.415629 29.547619 170.646581 29.7095238 169.837057 29.7904762 169.027533 29.7904762 168.015629 29.8309524 167.003724 29.6690476 166.072772 29.3047619 165.3442 29.0214286 164.696581 28.5357143 164.210867 27.9690476 163.725153 27.3619048 163.401343 26.6333333 163.198962 25.8642857 162.996581 24.9738095 162.915629 24.0428571 162.956105 23.152381L162.956105 10.1595238M174.815629 21.8571429C174.775153 20.6428571 175.01801 19.4285714 175.422772 18.2952381 175.787057 17.3238095 176.353724 16.4738095 177.082295 15.7047619 177.770391 15.0166667 178.539438 14.4904762 179.429914 14.1666667 180.320391 13.802381 181.251343 13.6404762 182.182295 13.6404762 184.36801 13.6404762 186.108486 14.3285714 187.363248 15.6642857 188.61801 17 189.265629 18.9833333 189.265629 21.5738095 189.265629 21.8166667 189.265629 22.1 189.225153 22.4238095 189.225153 22.747619 189.184676 22.9904762 189.184676 23.2333333L179.308486 23.2333333C179.389438 24.0833333 179.834676 24.8928571 180.563248 25.3785714 181.453724 25.9452381 182.506105 26.2285714 183.558486 26.1880952 184.327533 26.1880952 185.137057 26.1071429 185.906105 25.9857143 186.553724 25.8642857 187.201343 25.6619048 187.808486 25.3785714L188.415629 28.9404762C188.132295 29.102381 187.808486 29.1833333 187.484676 29.3047619 187.039438 29.4261905 186.5942 29.547619 186.148962 29.5880952 185.663248 29.6690476 185.177533 29.75 184.610867 29.8309524 184.084676 29.8714286 183.51801 29.9119048 182.951343 29.9119048 181.696581 29.952381 180.482295 29.75 179.308486 29.3047619 178.337057 28.9404762 177.487057 28.3738095 176.758486 27.6452381 176.070391 26.9166667 175.584676 26.0261905 175.260867 25.0952381 174.977533 24.002381 174.815629 22.9095238 174.815629 21.8571429M185.056105 20.197619C185.056105 19.8333333 184.975153 19.4690476 184.853724 19.1047619 184.772772 18.7404762 184.570391 18.4571429 184.36801 18.1738095 184.125153 17.8904762 183.841819 17.647619 183.51801 17.4857143 183.113248 17.2833333 182.708486 17.202381 182.263248 17.202381 181.81801 17.202381 181.413248 17.2833333 181.008486 17.4857143 180.684676 17.647619 180.360867 17.85 180.11801 18.1333333 179.875153 18.4166667 179.672772 18.7404762 179.551343 19.1047619 179.429914 19.4690476 179.348962 19.8333333 179.308486 20.197619L185.056105 20.197619M197.11801 26.3095238C197.684676 26.35 198.291819 26.2690476 198.81801 26.0666667 199.141819 25.9047619 199.3442 25.5404762 199.303724 25.1761905 199.263248 24.7714286 199.020391 24.4071429 198.656105 24.2857143 198.048962 23.9214286 197.360867 23.597619 196.672772 23.3952381 195.984676 23.152381 195.377533 22.8690476 194.810867 22.5857143 194.284676 22.3428571 193.839438 22.0190476 193.3942 21.6142857 192.989438 21.2095238 192.706105 20.7642857 192.503724 20.2380952 192.260867 19.6309524 192.179914 18.9833333 192.179914 18.3357143 192.139438 17 192.746581 15.7047619 193.798962 14.8952381 194.891819 14.0452381 196.348962 13.6404762 198.210867 13.6404762 199.101343 13.6404762 200.032295 13.7214286 200.922772 13.9238095 201.610867 14.0452381 202.298962 14.2071429 202.987057 14.45L202.21801 17.8904762C201.651343 17.6880952 201.125153 17.5666667 200.558486 17.4047619 199.910867 17.2428571 199.222772 17.202381 198.575153 17.202381 197.198962 17.202381 196.510867 17.5666667 196.510867 18.3357143 196.510867 18.497619 196.551343 18.6595238 196.591819 18.8214286 196.672772 18.9833333 196.7942 19.1047619 196.956105 19.2261905 197.11801 19.347619 197.360867 19.4690476 197.6442 19.6309524 197.927533 19.7928571 198.332295 19.9547619 198.81801 20.1166667 199.627533 20.4 200.437057 20.7642857 201.165629 21.1690476 201.732295 21.452381 202.21801 21.8166667 202.622772 22.302381 202.987057 22.6666667 203.229914 23.1119048 203.391819 23.6380952 203.553724 24.2047619 203.634676 24.7714286 203.634676 25.3380952 203.715629 26.7142857 203.06801 28.05 201.8942 28.8190476 200.760867 29.5880952 199.141819 29.9928571 197.037057 29.9928571 195.863248 30.0333333 194.729914 29.9119048 193.596581 29.6285714 192.948962 29.4666667 192.341819 29.2642857 191.734676 29.0619048L192.463248 25.5C193.191819 25.7833333 193.960867 26.0261905 194.729914 26.1880952 195.539438 26.2285714 196.308486 26.3095238 197.11801 26.3095238" transform="translate(.003)"/>
</svg>
