<svg xmlns="http://www.w3.org/2000/svg" width="42" height="42" viewBox="0 0 42 42">
  <g fill="none" fill-rule="evenodd" stroke="#FFF" stroke-linecap="round" stroke-linejoin="round" transform="translate(1 1.34)">
    <path d="M3.03954752,30.357262 C-2.20002753,22.0374167 -0.525170353,11.1673747 6.98038932,4.78068353 C14.485949,-1.60600761 25.5690063,-1.59203262 33.0581803,4.81356587 C40.5473543,11.2191644 42.1943591,22.0933951 36.9334872,30.4"/>
    <path d="M16.773693,13.3597065 C16.773693,12.1492945 17.7559199,11.1680618 18.9675582,11.1680618 C20.1791965,11.1680618 21.1614234,12.1492945 21.1614234,13.3597065 L21.1614234,23.7787853 L29.761375,26.3430096 C31.1961628,26.7572304 32.0583518,28.2168658 31.7226905,29.6743095 C31.7226905,29.6743095 30.086067,38.4452716 29.857905,39.7032756 L16.43145,39.7032756 L9.71602863,29.6436265 C7.05048242,25.5737423 13.7439651,24.1601315 16.773693,30.9366969 L16.773693,13.3597065 Z"/>
  </g>
</svg>
