<svg xmlns="http://www.w3.org/2000/svg" width="105" height="106" viewBox="0 0 105 106">
  <g fill="none" fill-rule="evenodd">
    <path fill="#ECB22E" d="M66.3881 105.031C72.177 105.031 76.87 100.329 76.87 94.528 76.87 88.727 72.177 84.025 66.3881 84.025L55.9058 84.025 55.9058 94.528C55.9058 100.329 60.5987 105.031 66.3881 105.031M66.3881 77.023L94.341 77.023C100.13 77.023 104.823 72.3203 104.823 66.5195 104.823 60.7186 100.13 56.0164 94.341 56.0164L66.3881 56.0164C60.5987 56.0164 55.9058 60.7186 55.9058 66.5195 55.9058 72.3203 60.5987 77.023 66.3881 77.023"/>
    <path fill="#E01E5A" d="M0 66.5195C0 72.3203 4.693 77.023 10.4823 77.023 16.2717 77.023 20.9647 72.3203 20.9647 66.5195L20.9647 56.0164 10.4823 56.0164C4.693 56.0164 0 60.7186 0 66.5195M27.9529 66.5195L27.9529 94.528C27.9529 100.329 32.6459 105.031 38.4352 105.031 44.2246 105.031 48.9175 100.329 48.9175 94.528L48.9175 66.5195C48.9175 60.7181 44.2246 56.0164 38.4352 56.0164 32.6459 56.0164 27.9529 60.7186 27.9529 66.5195"/>
    <path fill="#2EB67D" d="M104.823 38.5113C104.823 32.7105 100.13 28.0082 94.341 28.0082 88.552 28.0082 83.859 32.7105 83.859 38.5113L83.859 49.0144 94.341 49.0144C100.13 49.0144 104.823 44.3121 104.823 38.5113M76.87 38.5114L76.87 10.5031C76.87 4.7023 72.177 0 66.3881 0 60.5987 0 55.9058 4.7023 55.9058 10.5031L55.9058 38.5114C55.9058 44.3122 60.5987 49.0145 66.3881 49.0145 72.177 49.0145 76.87 44.3122 76.87 38.5114"/>
    <path fill="#36C5F0" d="M38.4352 0C32.6459 0 27.9529 4.7023 27.9529 10.5031 27.9529 16.3039 32.6459 21.0062 38.4352 21.0062L48.9175 21.0062 48.9175 10.5031C48.9175 4.7023 44.2246 0 38.4352 0M38.4352 28.0082L10.4823 28.0082C4.693 28.0082 0 32.7105 0 38.5113 0 44.3121 4.693 49.0144 10.4823 49.0144L38.4352 49.0144C44.2246 49.0144 48.9175 44.3121 48.9175 38.5113 48.9175 32.7105 44.2246 28.0082 38.4352 28.0082"/>
  </g>
</svg>
